<svg width="1920" height="1080" viewBox="0 0 1920 1080" fill="none" xmlns="http://www.w3.org/2000/svg">
<g clip-path="url(#clip0_217_2)">
<g clip-path="url(#clip1_217_2)">
<mask id="mask0_217_2" style="mask-type:luminance" maskUnits="userSpaceOnUse" x="0" y="-590" width="1920" height="747">
<path d="M1920 -590H0V157H1920V-590Z" fill="white"/>
</mask>
<g mask="url(#mask0_217_2)">
<path d="M1920 -590H0V157H1920V-590Z" fill="#0E2A47"/>
<path d="M278.04 153.465L429.32 240.837V415.582L278.04 502.954L126.773 415.582V240.837L278.04 153.465ZM731.853 -632.886L883.12 -545.513V-370.769L731.853 -283.397L580.587 -370.769V-545.513L731.853 -632.886ZM1790.75 -370.769L1942.01 -283.397V-108.652L1790.75 -21.2795L1639.48 -108.652V-283.397L1790.75 -370.769Z" stroke="#03305D" stroke-width="2"/>
<path d="M260.573 153.465C260.573 155.76 261.025 158.032 261.903 160.152C262.781 162.272 264.067 164.199 265.689 165.821C267.311 167.444 269.237 168.731 271.356 169.609C273.475 170.487 275.746 170.939 278.04 170.939C280.334 170.939 282.605 170.487 284.724 169.609C286.843 168.731 288.769 167.444 290.391 165.821C292.013 164.199 293.299 162.272 294.177 160.152C295.055 158.032 295.507 155.76 295.507 153.465C295.507 151.17 295.055 148.898 294.177 146.778C293.299 144.658 292.013 142.731 290.391 141.109C288.769 139.486 286.843 138.199 284.724 137.321C282.605 136.443 280.334 135.991 278.04 135.991C275.746 135.991 273.475 136.443 271.356 137.321C269.237 138.199 267.311 139.486 265.689 141.109C264.067 142.731 262.781 144.658 261.903 146.778C261.025 148.898 260.573 151.17 260.573 153.465ZM411.853 240.837C411.853 245.472 413.694 249.917 416.969 253.194C420.245 256.471 424.688 258.312 429.32 258.312C433.952 258.312 438.395 256.471 441.671 253.194C444.946 249.917 446.787 245.472 446.787 240.837C446.787 236.203 444.946 231.758 441.671 228.481C438.395 225.204 433.952 223.363 429.32 223.363C424.688 223.363 420.245 225.204 416.969 228.481C413.694 231.758 411.853 236.203 411.853 240.837ZM411.853 415.582C411.853 420.216 413.694 424.661 416.969 427.938C420.245 431.215 424.688 433.056 429.32 433.056C433.952 433.056 438.395 431.215 441.671 427.938C444.946 424.661 446.787 420.216 446.787 415.582C446.787 410.947 444.946 406.503 441.671 403.226C438.395 399.949 433.952 398.107 429.32 398.107C424.688 398.107 420.245 399.949 416.969 403.226C413.694 406.503 411.853 410.947 411.853 415.582ZM260.573 502.954C260.573 505.249 261.025 507.521 261.903 509.641C262.781 511.762 264.067 513.688 265.689 515.311C267.311 516.933 269.237 518.22 271.356 519.099C273.475 519.977 275.746 520.429 278.04 520.429C280.334 520.429 282.605 519.977 284.724 519.099C286.843 518.22 288.769 516.933 290.391 515.311C292.013 513.688 293.299 511.762 294.177 509.641C295.055 507.521 295.507 505.249 295.507 502.954C295.507 500.659 295.055 498.387 294.177 496.267C293.299 494.147 292.013 492.221 290.391 490.598C288.769 488.975 286.843 487.688 284.724 486.81C282.605 485.932 280.334 485.48 278.04 485.48C275.746 485.48 273.475 485.932 271.356 486.81C269.237 487.688 267.311 488.975 265.689 490.598C264.067 492.221 262.781 494.147 261.903 496.267C261.025 498.387 260.573 500.659 260.573 502.954ZM109.307 415.582C109.307 420.216 111.147 424.661 114.423 427.938C117.698 431.215 122.141 433.056 126.773 433.056C131.406 433.056 135.848 431.215 139.124 427.938C142.4 424.661 144.24 420.216 144.24 415.582C144.24 410.947 142.4 406.503 139.124 403.226C135.848 399.949 131.406 398.107 126.773 398.107C122.141 398.107 117.698 399.949 114.423 403.226C111.147 406.503 109.307 410.947 109.307 415.582ZM109.307 240.837C109.307 245.472 111.147 249.917 114.423 253.194C117.698 256.471 122.141 258.312 126.773 258.312C131.406 258.312 135.848 256.471 139.124 253.194C142.4 249.917 144.24 245.472 144.24 240.837C144.24 236.203 142.4 231.758 139.124 228.481C135.848 225.204 131.406 223.363 126.773 223.363C122.141 223.363 117.698 225.204 114.423 228.481C111.147 231.758 109.307 236.203 109.307 240.837ZM714.387 -632.886C714.387 -630.591 714.838 -628.319 715.716 -626.199C716.594 -624.079 717.881 -622.152 719.503 -620.53C721.124 -618.907 723.05 -617.62 725.169 -616.742C727.288 -615.863 729.56 -615.411 731.853 -615.411C734.147 -615.411 736.418 -615.863 738.537 -616.742C740.657 -617.62 742.582 -618.907 744.204 -620.53C745.826 -622.152 747.113 -624.079 747.99 -626.199C748.868 -628.319 749.32 -630.591 749.32 -632.886C749.32 -635.181 748.868 -637.453 747.99 -639.573C747.113 -641.693 745.826 -643.619 744.204 -645.242C742.582 -646.865 740.657 -648.152 738.537 -649.03C736.418 -649.908 734.147 -650.36 731.853 -650.36C729.56 -650.36 727.288 -649.908 725.169 -649.03C723.05 -648.152 721.124 -646.865 719.503 -645.242C717.881 -643.619 716.594 -641.693 715.716 -639.573C714.838 -637.453 714.387 -635.181 714.387 -632.886ZM865.653 -545.514C865.653 -540.879 867.494 -536.434 870.769 -533.157C874.045 -529.88 878.488 -528.039 883.12 -528.039C887.753 -528.039 892.195 -529.88 895.471 -533.157C898.746 -536.434 900.587 -540.879 900.587 -545.514C900.587 -550.148 898.746 -554.593 895.471 -557.87C892.195 -561.147 887.753 -562.988 883.12 -562.988C878.488 -562.988 874.045 -561.147 870.769 -557.87C867.494 -554.593 865.653 -550.148 865.653 -545.514ZM865.653 -370.769C865.653 -366.134 867.494 -361.69 870.769 -358.413C874.045 -355.135 878.488 -353.294 883.12 -353.294C887.753 -353.294 892.195 -355.135 895.471 -358.413C898.746 -361.69 900.587 -366.134 900.587 -370.769C900.587 -375.403 898.746 -379.848 895.471 -383.125C892.195 -386.402 887.753 -388.243 883.12 -388.243C878.488 -388.243 874.045 -386.402 870.769 -383.125C867.494 -379.848 865.653 -375.403 865.653 -370.769ZM714.387 -283.397C714.387 -281.102 714.838 -278.829 715.716 -276.709C716.594 -274.589 717.881 -272.663 719.503 -271.04C721.124 -269.418 723.05 -268.13 725.169 -267.252C727.288 -266.374 729.56 -265.922 731.853 -265.922C734.147 -265.922 736.418 -266.374 738.537 -267.252C740.657 -268.13 742.582 -269.418 744.204 -271.04C745.826 -272.663 747.113 -274.589 747.99 -276.709C748.868 -278.829 749.32 -281.102 749.32 -283.397C749.32 -285.691 748.868 -287.964 747.99 -290.084C747.113 -292.204 745.826 -294.13 744.204 -295.753C742.582 -297.376 740.657 -298.663 738.537 -299.541C736.418 -300.419 734.147 -300.871 731.853 -300.871C729.56 -300.871 727.288 -300.419 725.169 -299.541C723.05 -298.663 721.124 -297.376 719.503 -295.753C717.881 -294.13 716.594 -292.204 715.716 -290.084C714.838 -287.964 714.387 -285.691 714.387 -283.397ZM563.12 -370.769C563.12 -366.134 564.96 -361.69 568.236 -358.413C571.511 -355.135 575.954 -353.294 580.587 -353.294C585.219 -353.294 589.662 -355.135 592.937 -358.413C596.213 -361.69 598.053 -366.134 598.053 -370.769C598.053 -375.403 596.213 -379.848 592.937 -383.125C589.662 -386.402 585.219 -388.243 580.587 -388.243C575.954 -388.243 571.511 -386.402 568.236 -383.125C564.96 -379.848 563.12 -375.403 563.12 -370.769ZM563.12 -545.514C563.12 -540.879 564.96 -536.434 568.236 -533.157C571.511 -529.88 575.954 -528.039 580.587 -528.039C585.219 -528.039 589.662 -529.88 592.937 -533.157C596.213 -536.434 598.053 -540.879 598.053 -545.514C598.053 -550.148 596.213 -554.593 592.937 -557.87C589.662 -561.147 585.219 -562.988 580.587 -562.988C575.954 -562.988 571.511 -561.147 568.236 -557.87C564.96 -554.593 563.12 -550.148 563.12 -545.514ZM1773.28 -370.769C1773.28 -366.134 1775.12 -361.69 1778.4 -358.413C1781.67 -355.135 1786.11 -353.294 1790.75 -353.294C1795.38 -353.294 1799.82 -355.135 1803.1 -358.413C1806.37 -361.69 1808.21 -366.134 1808.21 -370.769C1808.21 -375.403 1806.37 -379.848 1803.1 -383.125C1799.82 -386.402 1795.38 -388.243 1790.75 -388.243C1786.11 -388.243 1781.67 -386.402 1778.4 -383.125C1775.12 -379.848 1773.28 -375.403 1773.28 -370.769ZM1924.55 -283.397C1924.55 -278.762 1926.39 -274.317 1929.66 -271.04C1932.94 -267.763 1937.38 -265.922 1942.01 -265.922C1946.65 -265.922 1951.09 -267.763 1954.36 -271.04C1957.64 -274.317 1959.48 -278.762 1959.48 -283.397C1959.48 -288.031 1957.64 -292.476 1954.36 -295.753C1951.09 -299.03 1946.65 -300.871 1942.01 -300.871C1937.38 -300.871 1932.94 -299.03 1929.66 -295.753C1926.39 -292.476 1924.55 -288.031 1924.55 -283.397ZM1924.55 -108.652C1924.55 -104.017 1926.39 -99.5727 1929.66 -96.2956C1932.94 -93.0185 1937.38 -91.1775 1942.01 -91.1775C1946.65 -91.1775 1951.09 -93.0185 1954.36 -96.2956C1957.64 -99.5727 1959.48 -104.017 1959.48 -108.652C1959.48 -113.286 1957.64 -117.731 1954.36 -121.008C1951.09 -124.285 1946.65 -126.126 1942.01 -126.126C1937.38 -126.126 1932.94 -124.285 1929.66 -121.008C1926.39 -117.731 1924.55 -113.286 1924.55 -108.652ZM1773.28 -21.2796C1773.28 -16.6451 1775.12 -12.2004 1778.4 -8.92332C1781.67 -5.64622 1786.11 -3.80515 1790.75 -3.80515C1795.38 -3.80515 1799.82 -5.64622 1803.1 -8.92332C1806.37 -12.2004 1808.21 -16.6451 1808.21 -21.2796C1808.21 -25.9141 1806.37 -30.3588 1803.1 -33.6359C1799.82 -36.913 1795.38 -38.7541 1790.75 -38.7541C1786.11 -38.7541 1781.67 -36.913 1778.4 -33.6359C1775.12 -30.3588 1773.28 -25.9141 1773.28 -21.2796ZM1622.01 -108.652C1622.01 -104.017 1623.85 -99.5727 1627.13 -96.2956C1630.4 -93.0185 1634.85 -91.1775 1639.48 -91.1775C1644.11 -91.1775 1648.56 -93.0185 1651.83 -96.2956C1655.11 -99.5727 1656.95 -104.017 1656.95 -108.652C1656.95 -113.286 1655.11 -117.731 1651.83 -121.008C1648.56 -124.285 1644.11 -126.126 1639.48 -126.126C1634.85 -126.126 1630.4 -124.285 1627.13 -121.008C1623.85 -117.731 1622.01 -113.286 1622.01 -108.652ZM1622.01 -283.397C1622.01 -278.762 1623.85 -274.317 1627.13 -271.04C1630.4 -267.763 1634.85 -265.922 1639.48 -265.922C1644.11 -265.922 1648.56 -267.763 1651.83 -271.04C1655.11 -274.317 1656.95 -278.762 1656.95 -283.397C1656.95 -288.031 1655.11 -292.476 1651.83 -295.753C1648.56 -299.03 1644.11 -300.871 1639.48 -300.871C1634.85 -300.871 1630.4 -299.03 1627.13 -295.753C1623.85 -292.476 1622.01 -288.031 1622.01 -283.397Z" fill="#03305D"/>
<path d="M109.813 -568.39L45.1466 -605.74L-19.52 -568.39V-493.69L45.1466 -456.34M109.813 -568.39V-493.69M109.813 -568.39L174.48 -605.74L239.147 -568.39V-493.69M109.813 -493.69L45.1466 -456.34M109.813 -493.69L174.48 -456.34M45.1466 -456.34V-381.64L109.813 -344.29L174.48 -381.64M174.48 -456.34V-381.64M174.48 -456.34L239.147 -493.69M174.48 -381.64L239.147 -344.29M174.48 66.5597V-8.14035L109.813 -45.4904L45.1466 -8.14035V66.5597L109.813 103.91M174.48 66.5597L109.813 103.91M174.48 66.5597L239.147 103.91V178.61L174.48 215.96L109.813 178.61V103.91M239.147 -493.69L303.813 -456.34V-381.64M303.813 -381.64L239.147 -344.29M303.813 -381.64L368.467 -344.29V-269.59M239.147 -344.29V-269.59L303.813 -232.24M368.467 -269.59L303.813 -232.24M368.467 -269.59L433.133 -232.24M303.813 -232.24V-157.54L368.467 -120.19L433.133 -157.54M433.133 -232.24V-157.54M433.133 -232.24L497.8 -269.59M433.133 -157.54L497.8 -120.19L562.467 -157.54M433.133 -8.14035L368.467 -45.4904L303.813 -8.14035V66.5597L368.467 103.91L433.133 66.5597M433.133 -8.14035V66.5597M433.133 -8.14035L497.8 -45.4904L562.467 -8.14035V66.5597M433.133 66.5597L497.8 103.91M497.8 -568.39L433.133 -605.74L368.467 -568.39V-493.69L433.133 -456.34M497.8 -568.39V-493.69M497.8 -568.39L562.467 -605.74L627.133 -568.39M497.8 -493.69L433.133 -456.34M497.8 -493.69L562.467 -456.34M433.133 -456.34V-381.64L497.8 -344.29M562.467 -456.34V-381.64M562.467 -456.34L627.133 -493.69M562.467 -381.64L497.8 -344.29M562.467 -381.64L627.133 -344.29V-269.59M497.8 -344.29V-269.59M497.8 -269.59L562.467 -232.24M562.467 -232.24V-157.54M562.467 -232.24L627.133 -269.59M562.467 -157.54L627.133 -120.19M562.467 66.5597L497.8 103.91M562.467 66.5597L627.133 103.91V178.61L562.467 215.96M497.8 103.91V178.61M497.8 178.61L562.467 215.96M497.8 178.61L433.133 215.96V290.66L497.8 328.01L562.467 290.66V215.96M627.133 -568.39V-493.69M627.133 -568.39L691.8 -605.74L756.467 -568.39V-493.69L691.8 -456.34L627.133 -493.69M627.133 -269.59L691.8 -232.24V-157.54M691.8 -157.54L627.133 -120.19M691.8 -157.54L756.467 -120.19V-45.4904L691.8 -8.14035L627.133 -45.4904V-120.19M885.787 -269.59L950.453 -232.24M885.787 -269.59L821.133 -232.24V-157.54L885.787 -120.19M885.787 -269.59V-344.29L950.453 -381.64L1015.12 -344.29M950.453 -232.24V-157.54M950.453 -232.24L1015.12 -269.59M950.453 -157.54L885.787 -120.19M950.453 -157.54L1015.12 -120.19V-45.4904L950.453 -8.14035M885.787 -120.19V-45.4904M885.787 -45.4904L950.453 -8.14035M885.787 -45.4904L821.133 -8.14035V66.5597L885.787 103.91L950.453 66.5597V-8.14035M1015.12 -344.29V-269.59M1015.12 -344.29L1079.79 -381.64M1015.12 -269.59L1079.79 -232.24L1144.45 -269.59V-344.29M1144.45 -344.29L1209.12 -381.64V-456.34L1144.45 -493.69L1079.79 -456.34V-381.64M1144.45 -344.29L1079.79 -381.64M1144.45 178.61V103.91L1079.79 66.5597L1015.12 103.91V178.61L1079.79 215.96M1144.45 178.61L1079.79 215.96M1144.45 178.61L1209.12 215.96V290.66L1144.45 328.01L1079.79 290.66V215.96M1338.45 -232.24L1273.79 -269.59L1209.12 -232.24V-157.54L1273.79 -120.19L1338.45 -157.54M1338.45 -232.24V-157.54M1338.45 -232.24L1403.11 -269.59L1467.77 -232.24M1338.45 -157.54L1403.11 -120.19M1403.11 -493.69L1467.77 -456.34M1403.11 -493.69L1338.45 -456.34V-381.64L1403.11 -344.29L1467.77 -381.64V-456.34M1403.11 -493.69V-568.39L1467.77 -605.74L1532.44 -568.39M1467.77 -456.34L1532.44 -493.69M1467.77 -232.24V-157.54M1467.77 -232.24L1532.44 -269.59L1597.11 -232.24V-157.54L1532.44 -120.19M1467.77 -157.54L1403.11 -120.19M1467.77 -157.54L1532.44 -120.19M1403.11 -120.19V-45.4904L1467.77 -8.14035L1532.44 -45.4904V-120.19M1467.77 215.96L1403.11 178.61L1338.45 215.96V290.66L1403.11 328.01L1467.77 290.66M1467.77 215.96V290.66M1467.77 215.96L1532.44 178.61L1597.11 215.96M1467.77 290.66L1532.44 328.01L1597.11 290.66M1532.44 -568.39V-493.69M1532.44 -568.39L1597.11 -605.74L1661.77 -568.39M1532.44 -493.69L1597.11 -456.34L1661.77 -493.69M1597.11 215.96V290.66M1597.11 215.96L1661.77 178.61L1726.44 215.96V290.66L1661.77 328.01L1597.11 290.66M1661.77 -568.39V-493.69M1661.77 -568.39L1726.44 -605.74L1791.11 -568.39M1661.77 -493.69L1726.44 -456.34M1791.11 -568.39V-493.69M1791.11 -568.39L1855.77 -605.74L1920.44 -568.39V-493.69L1855.77 -456.34M1791.11 -493.69L1726.44 -456.34M1791.11 -493.69L1855.77 -456.34M1726.44 -456.34V-381.64L1791.11 -344.29L1855.77 -381.64V-456.34M1791.11 -120.19L1726.44 -157.54L1661.77 -120.19V-45.4904L1726.44 -8.14035M1791.11 -120.19V-45.4904M1791.11 -120.19L1855.77 -157.54M1791.11 -45.4904L1726.44 -8.14035M1791.11 -45.4904L1855.77 -8.14035M1726.44 -8.14035V66.5597L1791.11 103.91L1855.77 66.5597V-8.14035M1855.77 -8.14035L1920.44 -45.4904V-120.19M1920.44 -120.19L1985.09 -157.54V-232.24L1920.44 -269.59L1855.77 -232.24V-157.54M1920.44 -120.19L1855.77 -157.54M1920.44 178.61L1985.09 215.96V290.66L1920.44 328.01L1855.77 290.66V215.96L1920.44 178.61Z" stroke="url(#paint0_linear_217_2)" stroke-width="2"/>
</g>
</g>
<g filter="url(#filter0_d_217_2)">
<circle cx="2542" cy="-446" r="792.5" stroke="#FDB813" stroke-width="7" shape-rendering="crispEdges"/>
</g>
<g filter="url(#filter1_d_217_2)">
<circle cx="2518" cy="-410" r="792.5" stroke="#FDB813" stroke-width="7" shape-rendering="crispEdges"/>
</g>
<g filter="url(#filter2_d_217_2)">
<circle cx="2474" cy="-382" r="792.5" stroke="#FDB813" stroke-width="7" shape-rendering="crispEdges"/>
</g>
<g filter="url(#filter3_d_217_2)">
<circle cx="2408" cy="-328" r="792.5" stroke="#FDB813" stroke-width="7" shape-rendering="crispEdges"/>
</g>
<g filter="url(#filter4_d_217_2)">
<circle cx="2314" cy="-248" r="792.5" stroke="#FDB813" stroke-width="7" shape-rendering="crispEdges"/>
</g>
<g filter="url(#filter5_d_217_2)">
<circle cx="2188" cy="-126" r="792.5" stroke="#FDB813" stroke-width="7" shape-rendering="crispEdges"/>
</g>
<g filter="url(#filter6_d_217_2)">
<circle cx="2138" cy="-32" r="792.5" stroke="#FDB813" stroke-width="7" shape-rendering="crispEdges"/>
</g>
<g filter="url(#filter7_d_217_2)">
<circle cx="2038" cy="30" r="792.5" stroke="#FDB813" stroke-width="7" shape-rendering="crispEdges"/>
</g>
</g>
<defs>
<filter id="filter0_d_217_2" x="1740.4" y="-1242" width="1603.2" height="1621.6" filterUnits="userSpaceOnUse" color-interpolation-filters="sRGB">
<feFlood flood-opacity="0" result="BackgroundImageFix"/>
<feColorMatrix in="SourceAlpha" type="matrix" values="0 0 0 0 0 0 0 0 0 0 0 0 0 0 0 0 0 0 127 0" result="hardAlpha"/>
<feOffset dy="24"/>
<feGaussianBlur stdDeviation="2.8"/>
<feComposite in2="hardAlpha" operator="out"/>
<feColorMatrix type="matrix" values="0 0 0 0 0 0 0 0 0 0 0 0 0 0 0 0 0 0 0.25 0"/>
<feBlend mode="normal" in2="BackgroundImageFix" result="effect1_dropShadow_217_2"/>
<feBlend mode="normal" in="SourceGraphic" in2="effect1_dropShadow_217_2" result="shape"/>
</filter>
<filter id="filter1_d_217_2" x="1716.4" y="-1206" width="1603.2" height="1621.6" filterUnits="userSpaceOnUse" color-interpolation-filters="sRGB">
<feFlood flood-opacity="0" result="BackgroundImageFix"/>
<feColorMatrix in="SourceAlpha" type="matrix" values="0 0 0 0 0 0 0 0 0 0 0 0 0 0 0 0 0 0 127 0" result="hardAlpha"/>
<feOffset dy="24"/>
<feGaussianBlur stdDeviation="2.8"/>
<feComposite in2="hardAlpha" operator="out"/>
<feColorMatrix type="matrix" values="0 0 0 0 0 0 0 0 0 0 0 0 0 0 0 0 0 0 0.25 0"/>
<feBlend mode="normal" in2="BackgroundImageFix" result="effect1_dropShadow_217_2"/>
<feBlend mode="normal" in="SourceGraphic" in2="effect1_dropShadow_217_2" result="shape"/>
</filter>
<filter id="filter2_d_217_2" x="1672.4" y="-1178" width="1603.2" height="1621.6" filterUnits="userSpaceOnUse" color-interpolation-filters="sRGB">
<feFlood flood-opacity="0" result="BackgroundImageFix"/>
<feColorMatrix in="SourceAlpha" type="matrix" values="0 0 0 0 0 0 0 0 0 0 0 0 0 0 0 0 0 0 127 0" result="hardAlpha"/>
<feOffset dy="24"/>
<feGaussianBlur stdDeviation="2.8"/>
<feComposite in2="hardAlpha" operator="out"/>
<feColorMatrix type="matrix" values="0 0 0 0 0 0 0 0 0 0 0 0 0 0 0 0 0 0 0.25 0"/>
<feBlend mode="normal" in2="BackgroundImageFix" result="effect1_dropShadow_217_2"/>
<feBlend mode="normal" in="SourceGraphic" in2="effect1_dropShadow_217_2" result="shape"/>
</filter>
<filter id="filter3_d_217_2" x="1606.4" y="-1124" width="1603.2" height="1621.6" filterUnits="userSpaceOnUse" color-interpolation-filters="sRGB">
<feFlood flood-opacity="0" result="BackgroundImageFix"/>
<feColorMatrix in="SourceAlpha" type="matrix" values="0 0 0 0 0 0 0 0 0 0 0 0 0 0 0 0 0 0 127 0" result="hardAlpha"/>
<feOffset dy="24"/>
<feGaussianBlur stdDeviation="2.8"/>
<feComposite in2="hardAlpha" operator="out"/>
<feColorMatrix type="matrix" values="0 0 0 0 0 0 0 0 0 0 0 0 0 0 0 0 0 0 0.25 0"/>
<feBlend mode="normal" in2="BackgroundImageFix" result="effect1_dropShadow_217_2"/>
<feBlend mode="normal" in="SourceGraphic" in2="effect1_dropShadow_217_2" result="shape"/>
</filter>
<filter id="filter4_d_217_2" x="1512.4" y="-1044" width="1603.2" height="1621.6" filterUnits="userSpaceOnUse" color-interpolation-filters="sRGB">
<feFlood flood-opacity="0" result="BackgroundImageFix"/>
<feColorMatrix in="SourceAlpha" type="matrix" values="0 0 0 0 0 0 0 0 0 0 0 0 0 0 0 0 0 0 127 0" result="hardAlpha"/>
<feOffset dy="24"/>
<feGaussianBlur stdDeviation="2.8"/>
<feComposite in2="hardAlpha" operator="out"/>
<feColorMatrix type="matrix" values="0 0 0 0 0 0 0 0 0 0 0 0 0 0 0 0 0 0 0.25 0"/>
<feBlend mode="normal" in2="BackgroundImageFix" result="effect1_dropShadow_217_2"/>
<feBlend mode="normal" in="SourceGraphic" in2="effect1_dropShadow_217_2" result="shape"/>
</filter>
<filter id="filter5_d_217_2" x="1386.4" y="-922" width="1603.2" height="1621.6" filterUnits="userSpaceOnUse" color-interpolation-filters="sRGB">
<feFlood flood-opacity="0" result="BackgroundImageFix"/>
<feColorMatrix in="SourceAlpha" type="matrix" values="0 0 0 0 0 0 0 0 0 0 0 0 0 0 0 0 0 0 127 0" result="hardAlpha"/>
<feOffset dy="24"/>
<feGaussianBlur stdDeviation="2.8"/>
<feComposite in2="hardAlpha" operator="out"/>
<feColorMatrix type="matrix" values="0 0 0 0 0 0 0 0 0 0 0 0 0 0 0 0 0 0 0.25 0"/>
<feBlend mode="normal" in2="BackgroundImageFix" result="effect1_dropShadow_217_2"/>
<feBlend mode="normal" in="SourceGraphic" in2="effect1_dropShadow_217_2" result="shape"/>
</filter>
<filter id="filter6_d_217_2" x="1336.4" y="-828" width="1603.2" height="1621.6" filterUnits="userSpaceOnUse" color-interpolation-filters="sRGB">
<feFlood flood-opacity="0" result="BackgroundImageFix"/>
<feColorMatrix in="SourceAlpha" type="matrix" values="0 0 0 0 0 0 0 0 0 0 0 0 0 0 0 0 0 0 127 0" result="hardAlpha"/>
<feOffset dy="24"/>
<feGaussianBlur stdDeviation="2.8"/>
<feComposite in2="hardAlpha" operator="out"/>
<feColorMatrix type="matrix" values="0 0 0 0 0 0 0 0 0 0 0 0 0 0 0 0 0 0 0.25 0"/>
<feBlend mode="normal" in2="BackgroundImageFix" result="effect1_dropShadow_217_2"/>
<feBlend mode="normal" in="SourceGraphic" in2="effect1_dropShadow_217_2" result="shape"/>
</filter>
<filter id="filter7_d_217_2" x="1236.4" y="-766" width="1603.2" height="1621.6" filterUnits="userSpaceOnUse" color-interpolation-filters="sRGB">
<feFlood flood-opacity="0" result="BackgroundImageFix"/>
<feColorMatrix in="SourceAlpha" type="matrix" values="0 0 0 0 0 0 0 0 0 0 0 0 0 0 0 0 0 0 127 0" result="hardAlpha"/>
<feOffset dy="24"/>
<feGaussianBlur stdDeviation="2.8"/>
<feComposite in2="hardAlpha" operator="out"/>
<feColorMatrix type="matrix" values="0 0 0 0 0 0 0 0 0 0 0 0 0 0 0 0 0 0 0.25 0"/>
<feBlend mode="normal" in2="BackgroundImageFix" result="effect1_dropShadow_217_2"/>
<feBlend mode="normal" in="SourceGraphic" in2="effect1_dropShadow_217_2" result="shape"/>
</filter>
<linearGradient id="paint0_linear_217_2" x1="293.376" y1="-883.496" x2="1627.22" y2="449.901" gradientUnits="userSpaceOnUse">
<stop stop-color="#0E2A47"/>
<stop offset="1" stop-color="#00459E"/>
</linearGradient>
<clipPath id="clip0_217_2">
<rect width="1920" height="1080" fill="white"/>
</clipPath>
<clipPath id="clip1_217_2">
<rect width="1920" height="747" fill="white" transform="translate(0 -590)"/>
</clipPath>
</defs>
</svg>
